<svg xmlns="http://www.w3.org/2000/svg" viewBox="0 0 107 82.11"><defs><style>.cls-1,.cls-3{fill:#303030;}.cls-2{writing-mode:tb;text-orientation:upright;glyph-orientation-vertical:0deg;font-size:11px;fill:#16e0bd;letter-spacing:-0.05em;}.cls-2,.cls-3{font-family:RobotoCondensed-Regular, Roboto Condensed;}.cls-3{font-size:10.3px;letter-spacing:-0.05em;}</style></defs><title>Asset 1</title><g id="Layer_2" data-name="Layer 2"><g id="Layer_1-2" data-name="Layer 1"><path class="cls-1" d="M97.24,17c2.52,0,4.56-1.23,4.57-2.75s-2-2.76-4.55-2.76-4.57,1.23-4.57,2.75a1.66,1.66,0,0,0,.07.49L78.94,19.52a6.56,6.56,0,0,0-3-.68c-2.51,0-4.55,1.22-4.56,2.73a2.62,2.62,0,0,0,1.79,2.2L66.58,36.11,61,29c1.78-1.07,1.78-2.81,0-3.89a6.81,6.81,0,0,0-6.44,0,2.36,2.36,0,0,0-1.34,2,1.89,1.89,0,0,0,.45,1.18L41.46,35.64a7.21,7.21,0,0,0-4.48.18L25.6,30.67a1.63,1.63,0,0,0,.23-.81c0-1.53-2-2.76-4.56-2.76s-4.57,1.23-4.58,2.75,2,2.76,4.57,2.77a7,7,0,0,0,2.54-.47l11.38,5.16c-.76,1.44.57,3,3,3.44s4.94-.35,5.7-1.8a1.79,1.79,0,0,0-.24-2l12.17-7.36a6.57,6.57,0,0,0,2.44.25l7,8.81L57.63,52.81a5.41,5.41,0,0,0-3.86,1.42l-9.79-1c-.45-1.49-2.82-2.48-5.29-2.2s-4.11,1.7-3.66,3.19h0L24.2,58.05a6.65,6.65,0,0,0-2.93-.66c-2.51,0-4.56,1.23-4.56,2.75s2,2.76,4.55,2.76,4.56-1.23,4.56-2.75a1.55,1.55,0,0,0-.07-.52l10.83-3.81a6.73,6.73,0,0,0,6.34-.29,2.87,2.87,0,0,0,.55-.48l9.79,1c.41,1.5,2.76,2.51,5.25,2.26s4.16-1.67,3.74-3.17a2.93,2.93,0,0,0-1.75-1.74L67.13,41l5.62,7.07C71,49.18,71,50.93,72.74,52a6.85,6.85,0,0,0,6.45,0,2.4,2.4,0,0,0,1.34-2A1.94,1.94,0,0,0,80,48.79l15.43-10c2.35.64,5.11,0,6.17-1.4s0-3.09-2.33-3.73-5.11,0-6.17,1.41a1.87,1.87,0,0,0,.12,2.47l-15.42,10a6.45,6.45,0,0,0-2.29-.2l-7-8.82,7.6-14.16c2.52-.05,4.5-1.31,4.43-2.83a1.76,1.76,0,0,0-.07-.4l13.83-4.79A6.37,6.37,0,0,0,97.24,17Zm0-3.67c.84,0,1.52.41,1.52.91s-.68.92-1.52.92-1.52-.41-1.52-.92S96.4,13.34,97.24,13.34Zm-76,17.43c-.84,0-1.52-.41-1.52-.91s.68-.92,1.52-.92,1.52.41,1.52.92S22.11,30.77,21.27,30.77ZM39.51,39c-.84,0-1.52-.42-1.52-.92s.68-.92,1.52-.92,1.51.41,1.51.92S40.34,39,39.51,39ZM57.74,28c-.84,0-1.52-.41-1.52-.92s.68-.91,1.52-.91,1.52.41,1.52.91S58.58,28,57.74,28Zm-36.47,33c-.84,0-1.52-.41-1.52-.91s.68-.92,1.52-.92,1.52.41,1.52.92S22.11,61.06,21.27,61.06Zm18.24-6.42c-.84,0-1.52-.41-1.52-.92s.68-.92,1.52-.92,1.51.41,1.51.92S40.34,54.64,39.51,54.64Zm18.23,1.83c-.84,0-1.52-.41-1.52-.91s.68-.92,1.52-.92,1.52.41,1.52.92S58.58,56.47,57.74,56.47Zm39.5-21.11c.84,0,1.52.42,1.52.92s-.68.92-1.52.92-1.52-.41-1.52-.92S96.4,35.36,97.24,35.36ZM76,49.13c.84,0,1.52.41,1.52.92S76.81,51,76,51s-1.52-.41-1.52-.92S75.13,49.13,76,49.13Zm0-26.62c-.84,0-1.52-.41-1.52-.91s.68-.92,1.52-.92,1.52.41,1.52.92S76.81,22.51,76,22.51Z"/><text class="cls-2" transform="translate(5.5) scale(1 1.55)">André</text><text class="cls-3" transform="translate(6 79.31) scale(3.35 1)">Ladislau</text></g></g></svg>